<svg width="234" height="76" viewBox="0 0 234 76" fill="none" xmlns="http://www.w3.org/2000/svg">
<path d="M88.6934 41.4062H93.1582L99.7324 60.1973L106.307 41.4062H110.771L101.525 67H97.9395L88.6934 41.4062ZM86.2852 41.4062H90.7324L91.541 59.7227V67H86.2852V41.4062ZM108.732 41.4062H113.197V67H107.924V59.7227L108.732 41.4062ZM123.146 64.8555L128.191 47.9805H133.623L125.977 69.8652C125.812 70.3457 125.59 70.8613 125.309 71.4121C125.039 71.9629 124.67 72.4844 124.201 72.9766C123.744 73.4805 123.164 73.8906 122.461 74.207C121.77 74.5234 120.92 74.6816 119.912 74.6816C119.432 74.6816 119.039 74.6523 118.734 74.5938C118.43 74.5352 118.066 74.4531 117.645 74.3477V70.6387C117.773 70.6387 117.908 70.6387 118.049 70.6387C118.189 70.6504 118.324 70.6562 118.453 70.6562C119.121 70.6562 119.666 70.5801 120.088 70.4277C120.51 70.2754 120.85 70.041 121.107 69.7246C121.365 69.4199 121.57 69.0215 121.723 68.5293L123.146 64.8555ZM121.037 47.9805L125.168 61.7617L125.889 67.123L122.443 67.4922L115.605 47.9805H121.037ZM147.334 41.4062H151.799L158.373 60.1973L164.947 41.4062H169.412L160.166 67H156.58L147.334 41.4062ZM144.926 41.4062H149.373L150.182 59.7227V67H144.926V41.4062ZM167.373 41.4062H171.838V67H166.564V59.7227L167.373 41.4062ZM184.898 67.3516C183.422 67.3516 182.098 67.1172 180.926 66.6484C179.754 66.168 178.758 65.5059 177.938 64.6621C177.129 63.8184 176.508 62.8398 176.074 61.7266C175.641 60.6016 175.424 59.4062 175.424 58.1406V57.4375C175.424 55.9961 175.629 54.6777 176.039 53.4824C176.449 52.2871 177.035 51.25 177.797 50.3711C178.57 49.4922 179.508 48.8184 180.609 48.3496C181.711 47.8691 182.953 47.6289 184.336 47.6289C185.684 47.6289 186.879 47.8516 187.922 48.2969C188.965 48.7422 189.838 49.375 190.541 50.1953C191.256 51.0156 191.795 52 192.158 53.1484C192.521 54.2852 192.703 55.5508 192.703 56.9453V59.0547H177.586V55.6797H187.729V55.293C187.729 54.5898 187.6 53.9629 187.342 53.4121C187.096 52.8496 186.721 52.4043 186.217 52.0762C185.713 51.748 185.068 51.584 184.283 51.584C183.615 51.584 183.041 51.7305 182.561 52.0234C182.08 52.3164 181.688 52.7266 181.383 53.2539C181.09 53.7812 180.867 54.4023 180.715 55.1172C180.574 55.8203 180.504 56.5938 180.504 57.4375V58.1406C180.504 58.9023 180.609 59.6055 180.82 60.25C181.043 60.8945 181.354 61.4512 181.752 61.9199C182.162 62.3887 182.654 62.752 183.229 63.0098C183.814 63.2676 184.477 63.3965 185.215 63.3965C186.129 63.3965 186.979 63.2207 187.764 62.8691C188.561 62.5059 189.246 61.9609 189.82 61.2344L192.281 63.9062C191.883 64.4805 191.338 65.0312 190.646 65.5586C189.967 66.0859 189.146 66.5195 188.186 66.8594C187.225 67.1875 186.129 67.3516 184.898 67.3516ZM200.543 52.041V67H195.48V47.9805H200.227L200.543 52.041ZM199.805 56.8223H198.434C198.434 55.416 198.615 54.1504 198.979 53.0254C199.342 51.8887 199.852 50.9219 200.508 50.125C201.164 49.3164 201.943 48.7012 202.846 48.2793C203.76 47.8457 204.779 47.6289 205.904 47.6289C206.795 47.6289 207.609 47.7578 208.348 48.0156C209.086 48.2734 209.719 48.6836 210.246 49.2461C210.785 49.8086 211.195 50.5527 211.477 51.4785C211.77 52.4043 211.916 53.5352 211.916 54.8711V67H206.818V54.8535C206.818 54.0098 206.701 53.3535 206.467 52.8848C206.232 52.416 205.887 52.0879 205.43 51.9004C204.984 51.7012 204.434 51.6016 203.777 51.6016C203.098 51.6016 202.506 51.7363 202.002 52.0059C201.51 52.2754 201.1 52.6504 200.771 53.1309C200.455 53.5996 200.215 54.1504 200.051 54.7832C199.887 55.416 199.805 56.0957 199.805 56.8223ZM227.016 62.4473V47.9805H232.078V67H227.314L227.016 62.4473ZM227.578 58.5449L229.072 58.5098C229.072 59.7754 228.926 60.9531 228.633 62.043C228.34 63.1211 227.9 64.0586 227.314 64.8555C226.729 65.6406 225.99 66.2559 225.1 66.7012C224.209 67.1348 223.16 67.3516 221.953 67.3516C221.027 67.3516 220.172 67.2227 219.387 66.9648C218.613 66.6953 217.945 66.2793 217.383 65.7168C216.832 65.1426 216.398 64.4102 216.082 63.5195C215.777 62.6172 215.625 61.5332 215.625 60.2676V47.9805H220.688V60.3027C220.688 60.8652 220.752 61.3398 220.881 61.7266C221.021 62.1133 221.215 62.4297 221.461 62.6758C221.707 62.9219 221.994 63.0977 222.322 63.2031C222.662 63.3086 223.037 63.3613 223.447 63.3613C224.49 63.3613 225.311 63.1504 225.908 62.7285C226.518 62.3066 226.945 61.7324 227.191 61.0059C227.449 60.2676 227.578 59.4473 227.578 58.5449Z" fill="#F53B50"/>
<g clip-path="url(#clip0_227_387)">
<path d="M6.84375 0C5.02867 0 3.28794 0.721036 2.00449 2.00449C0.721036 3.28794 0 5.02867 0 6.84375L0 15.9688C0 17.7838 0.721036 19.5246 2.00449 20.808C3.28794 22.0915 5.02867 22.8125 6.84375 22.8125H66.1562C67.9713 22.8125 69.7121 22.0915 70.9955 20.808C72.279 19.5246 73 17.7838 73 15.9688V6.84375C73 5.02867 72.279 3.28794 70.9955 2.00449C69.7121 0.721036 67.9713 0 66.1562 0L6.84375 0ZM11.4062 9.125H25.0938C25.6988 9.125 26.279 9.36535 26.7068 9.79316C27.1347 10.221 27.375 10.8012 27.375 11.4062C27.375 12.0113 27.1347 12.5915 26.7068 13.0193C26.279 13.4472 25.6988 13.6875 25.0938 13.6875H11.4062C10.8012 13.6875 10.221 13.4472 9.79316 13.0193C9.36535 12.5915 9.125 12.0113 9.125 11.4062C9.125 10.8012 9.36535 10.221 9.79316 9.79316C10.221 9.36535 10.8012 9.125 11.4062 9.125V9.125ZM56.6982 11.0732C56.5383 10.9137 56.4293 10.7102 56.3851 10.4887C56.3409 10.2672 56.3635 10.0375 56.45 9.82885C56.5365 9.62018 56.683 9.44188 56.871 9.31658C57.0589 9.19127 57.2799 9.1246 57.5058 9.125H61.1192C61.3451 9.1246 61.5661 9.19127 61.754 9.31658C61.942 9.44188 62.0885 9.62018 62.175 9.82885C62.2615 10.0375 62.2841 10.2672 62.2399 10.4887C62.1957 10.7102 62.0867 10.9137 61.9268 11.0732L60.1201 12.8799C60.0141 12.9862 59.8882 13.0704 59.7497 13.1279C59.6111 13.1854 59.4625 13.215 59.3125 13.215C59.1625 13.215 59.0139 13.1854 58.8753 13.1279C58.7368 13.0704 58.6109 12.9862 58.5049 12.8799L56.6982 11.0732V11.0732ZM0 36.5C0 34.0799 0.961381 31.7589 2.67265 30.0477C4.38392 28.3364 6.7049 27.375 9.125 27.375H63.875C66.2951 27.375 68.6161 28.3364 70.3273 30.0477C72.0386 31.7589 73 34.0799 73 36.5V59.3125C73 61.7326 72.0386 64.0536 70.3273 65.7648C68.6161 67.4761 66.2951 68.4375 63.875 68.4375H9.125C6.7049 68.4375 4.38392 67.4761 2.67265 65.7648C0.961381 64.0536 0 61.7326 0 59.3125V36.5ZM4.5625 50.1875V59.3125C4.5625 60.5226 5.04319 61.683 5.89883 62.5387C6.75446 63.3943 7.91495 63.875 9.125 63.875H63.875C65.0851 63.875 66.2455 63.3943 67.1012 62.5387C67.9568 61.683 68.4375 60.5226 68.4375 59.3125V50.1875H4.5625ZM68.4375 45.625V36.5C68.4375 35.2899 67.9568 34.1295 67.1012 33.2738C66.2455 32.4182 65.0851 31.9375 63.875 31.9375H9.125C7.91495 31.9375 6.75446 32.4182 5.89883 33.2738C5.04319 34.1295 4.5625 35.2899 4.5625 36.5V45.625H68.4375ZM9.125 38.7812C9.125 38.1762 9.36535 37.596 9.79316 37.1682C10.221 36.7403 10.8012 36.5 11.4062 36.5H52.4688C53.0738 36.5 53.654 36.7403 54.0818 37.1682C54.5097 37.596 54.75 38.1762 54.75 38.7812C54.75 39.3863 54.5097 39.9665 54.0818 40.3943C53.654 40.8222 53.0738 41.0625 52.4688 41.0625H11.4062C10.8012 41.0625 10.221 40.8222 9.79316 40.3943C9.36535 39.9665 9.125 39.3863 9.125 38.7812ZM9.125 57.0312C9.125 56.4262 9.36535 55.846 9.79316 55.4182C10.221 54.9903 10.8012 54.75 11.4062 54.75H38.7812C39.3863 54.75 39.9665 54.9903 40.3943 55.4182C40.8222 55.846 41.0625 56.4262 41.0625 57.0312C41.0625 57.6363 40.8222 58.2165 40.3943 58.6443C39.9665 59.0722 39.3863 59.3125 38.7812 59.3125H11.4062C10.8012 59.3125 10.221 59.0722 9.79316 58.6443C9.36535 58.2165 9.125 57.6363 9.125 57.0312Z" fill="#F53B50"/>
</g>
<defs>
<clipPath id="clip0_227_387">
<rect width="73" height="73" fill="white"/>
</clipPath>
</defs>
</svg>
